HIERARCHY
ROOT Joint1
{
	OFFSET 0.000000 0.000000 0.000000
	CHANNELS 6 Xposition Yposition Zposition Xrotation Yrotation Zrotation
	JOINT Joint2
	{
		OFFSET -0.000000 0.000000 1.456275
		CHANNELS 6 Xposition Yposition Zposition Xrotation Yrotation Zrotation
		JOINT Joint3
		{
			OFFSET -0.000000 0.000002 1.471446
			CHANNELS 6 Xposition Yposition Zposition Xrotation Yrotation Zrotation
			JOINT Joint4
			{
				OFFSET 0.625745 0.000000 0.917755
				CHANNELS 6 Xposition Yposition Zposition Xrotation Yrotation Zrotation
				JOINT Joint5
				{
					OFFSET -0.629534 0.000001 0.940221
					CHANNELS 6 Xposition Yposition Zposition Xrotation Yrotation Zrotation
					JOINT Joint6
					{
						OFFSET -0.000001 0.113772 1.960660
						CHANNELS 6 Xposition Yposition Zposition Xrotation Yrotation Zrotation
						JOINT Joint7
						{
							OFFSET -0.669733 -0.113771 0.388340
							CHANNELS 6 Xposition Yposition Zposition Xrotation Yrotation Zrotation
							End Site
							{
								OFFSET 0.005509 0.005509 0.438980
							}
						}
					}
				}
			}
		}
	}
}
MOTION
Frames: 17
Frame Time: 0.041667
0.000000 0.000000 0.000000 -0.000000 1.019410 57.113895 -0.000000 0.000000 1.456275 -0.000001 -43.459073 -0.000001 -0.000000 0.000002 1.471445 -0.000001 -1.133464 -45.854250 0.625745 0.000001 0.917755 0.000034 94.307591 0.000007 -0.629534 0.000001 0.940221 -0.000001 1.709737 85.804094 -0.000001 0.113772 1.960661 -88.303834 95.172942 0.000026 -0.669732 -0.113771 0.388340 -1.242137 3.413690 166.802604 
0.000000 0.000000 0.000000 -0.000000 1.019410 58.301955 -0.000000 0.000000 1.456275 -0.000001 -43.427453 0.000003 -0.000000 0.000002 1.471446 -0.000003 -1.133462 -46.807293 0.625745 0.000000 0.917755 0.000007 93.460736 -0.000013 -0.629534 0.000001 0.940221 -0.000001 1.709737 87.589055 -0.000001 0.113772 1.960660 -88.303848 95.281077 0.000017 -0.669733 -0.113771 0.388340 -1.252100 3.407443 167.464709 
0.000000 0.000000 0.000000 -0.000000 1.019410 59.583804 -0.000000 0.000000 1.456275 0.000003 -43.393332 0.000000 -0.000000 0.000002 1.471446 -0.000003 -1.133466 -47.835578 0.625745 0.000000 0.917755 0.000028 92.547014 0.000007 -0.629534 0.000001 0.940221 0.000000 1.709739 89.514916 -0.000001 0.113772 1.960660 -88.303855 95.397764 0.000012 -0.669733 -0.113771 0.388340 -1.262762 3.400578 168.179079 
0.000000 0.000000 0.000000 -0.000000 1.019410 61.193932 -0.000000 0.000000 1.456275 -0.000003 -43.350483 0.000001 -0.000001 0.000002 1.471445 -0.000004 -1.133463 -49.127208 0.625745 0.000000 0.917755 0.000139 91.399303 -0.000031 -0.629534 0.000001 0.940221 -0.000001 1.709736 91.934012 -0.000001 0.113772 1.960660 -88.303848 95.544320 0.000038 -0.669733 -0.113772 0.388340 -1.276033 3.391769 169.076402 
0.000000 0.000000 0.000000 -0.000000 1.019410 63.233960 -0.000000 0.000000 1.456275 0.000001 -43.296187 0.000001 -0.000000 0.000002 1.471446 -0.000002 -1.133464 -50.763677 0.625745 0.000001 0.917755 -0.001534 89.945156 -0.001213 -0.629534 0.000001 0.940221 0.000001 1.709737 94.998963 -0.000001 0.113773 1.960661 -88.303868 95.729998 0.000002 -0.669733 -0.113771 0.388340 -1.292644 3.380305 170.213273 
0.000000 0.000000 0.000000 -0.000000 1.019410 65.273973 -0.000000 0.000000 1.456275 -0.000001 -43.241893 0.000000 -0.000000 0.000002 1.471446 -0.000002 -1.133463 -52.400163 0.625745 0.000000 0.917755 -0.000096 88.491016 0.000045 -0.629533 0.000001 0.940221 -0.000001 1.709737 98.063922 -0.000001 0.113772 1.960660 -88.303834 95.915698 -0.000008 -0.669733 -0.113771 0.388340 -1.309028 3.368517 171.350144 
0.000000 0.000000 0.000000 -0.000000 1.019410 66.884102 -0.000000 0.000000 1.456275 0.000001 -43.199034 -0.000003 -0.000000 0.000002 1.471446 -0.000004 -1.133465 -53.691786 0.625745 0.000000 0.917755 -0.000013 87.343298 -0.000007 -0.629534 0.000001 0.940220 -0.000002 1.709736 100.483018 -0.000001 0.113772 1.960661 -88.303868 96.062253 0.000008 -0.669733 -0.113771 0.388341 -1.321793 3.358991 172.247426 
0.000000 0.000000 0.000000 -0.000000 1.019410 68.165950 -0.000000 0.000000 1.456275 -0.000001 -43.164921 0.000002 -0.000000 0.000002 1.471446 -0.000004 -1.133464 -54.720071 0.625745 0.000000 0.917755 -0.000029 86.429589 -0.000008 -0.629533 0.000001 0.940221 0.000002 1.709738 102.408885 -0.000001 0.113772 1.960661 -88.303834 96.178926 -0.000002 -0.669733 -0.113770 0.388340 -1.331842 3.351260 172.961755 
0.000000 0.000000 0.000000 -0.000000 1.019410 69.354007 -0.000000 0.000000 1.456275 0.000001 -43.133300 0.000001 -0.000000 0.000002 1.471446 -0.000002 -1.133463 -55.673111 0.625745 0.000000 0.917755 -0.000030 85.582728 0.000007 -0.629533 0.000001 0.940221 -0.000002 1.709739 104.193839 -0.000001 0.113772 1.960660 -88.303848 96.287069 -0.000008 -0.669732 -0.113771 0.388340 -1.341072 3.343992 173.623819 
0.000000 0.000000 0.000000 -0.000000 1.019410 70.635863 -0.000000 0.000000 1.456275 0.000002 -43.099184 -0.000002 -0.000000 0.000002 1.471446 -0.000002 -1.133467 -56.701396 0.625744 0.000001 0.917755 -0.000034 84.669013 0.000006 -0.629534 0.000001 0.940221 -0.000003 1.709738 106.119713 -0.000001 0.113772 1.960661 -88.303868 96.403749 0.000000 -0.669733 -0.113771 0.388340 -1.350937 3.336015 174.338120 
0.000000 0.000000 0.000000 -0.000000 1.019410 72.011504 -0.000000 0.000000 1.456275 -0.000001 -43.062570 -0.000001 -0.000000 0.000002 1.471446 -0.000001 -1.133467 -57.804922 0.625744 0.000000 0.917754 0.000003 83.688436 0.000013 -0.629533 0.000001 0.940221 0.000000 1.709738 108.186501 -0.000000 0.113772 1.960660 -88.303868 96.528967 0.000008 -0.669734 -0.113771 0.388340 -1.361408 3.327327 175.104713 
0.000000 0.000000 0.000000 -0.000000 1.019410 73.434048 -0.000000 0.000000 1.456275 -0.000000 -43.024714 -0.000001 -0.000001 0.000002 1.471446 -0.000002 -1.133470 -58.946069 0.625745 0.000000 0.917755 -0.000022 82.674440 -0.000002 -0.629533 0.000001 0.940221 -0.000002 1.709736 110.323763 -0.000001 0.113772 1.960660 -88.303855 96.658447 0.000024 -0.669734 -0.113771 0.388341 -1.372117 3.318194 175.897411 
0.000000 0.000000 0.000000 -0.000000 1.019410 74.856592 -0.000000 -0.000000 1.456275 0.000001 -42.986851 0.000000 -0.000000 0.000002 1.471446 -0.000001 -1.133467 -60.087223 0.625745 0.000000 0.917755 -0.000012 81.660444 0.000004 -0.629534 0.000001 0.940221 -0.000001 1.709736 112.461018 -0.000001 0.113772 1.960660 -88.303855 96.787933 0.000007 -0.669733 -0.113771 0.388340 -1.382699 3.308921 176.690109 
0.000000 0.000000 0.000000 -0.000000 1.019410 76.232233 -0.000000 0.000000 1.456275 0.000001 -42.950238 -0.000000 -0.000000 0.000002 1.471446 -0.000003 -1.133463 -61.190743 0.625745 0.000000 0.917755 -0.000008 80.679868 0.000011 -0.629533 0.000001 0.940221 -0.000003 1.709736 114.527799 -0.000001 0.113772 1.960661 -88.303855 96.913151 0.000018 -0.669733 -0.113770 0.388341 -1.392804 3.299811 177.456661 
0.000000 0.000000 0.000000 -0.000000 1.019410 77.514089 -0.000000 -0.000000 1.456275 0.000001 -42.916121 0.000001 -0.000000 0.000002 1.471445 -0.000003 -1.133464 -62.219021 0.625745 0.000000 0.917755 -0.000008 79.766152 0.000001 -0.629533 0.000001 0.940221 0.000001 1.709737 116.453673 -0.000001 0.113772 1.960660 -88.303848 97.029824 0.000023 -0.669733 -0.113771 0.388340 -1.402112 3.291206 178.170935 
0.000000 0.000000 0.000000 -0.000000 1.019410 78.702146 -0.000000 0.000000 1.456275 0.000000 -42.884497 -0.000000 -0.000000 0.000002 1.471446 -0.000002 -1.133469 -63.172064 0.625745 0.000000 0.917755 -0.000002 78.919298 0.000001 -0.629534 0.000001 0.940221 -0.000001 1.709737 118.238620 -0.000001 0.113772 1.960661 -88.303862 97.137967 0.000029 -0.669733 -0.113770 0.388340 -1.410645 3.283124 178.832944 
0.000000 0.000000 0.000000 -0.000000 1.019410 79.983995 -0.000000 0.000000 1.456275 -0.000001 -42.850380 0.000000 -0.000000 0.000002 1.471446 -0.000003 -1.133464 -64.200349 0.625745 0.000000 0.917755 -0.000010 78.005576 0.000007 -0.629534 0.000001 0.940221 0.000000 1.709737 120.164502 -0.000001 0.113772 1.960661 -88.303882 97.254640 0.000017 -0.669733 -0.113771 0.388341 -1.419738 3.274293 179.547218 
